# AST/ASF file generated using VICON BodyLanguage
# -----------------------------------------------
:version 1.10
:name VICON
:units
  mass 1.0
  length 0.45
  angle deg
:documentation
   .ast/.asf automatically generated from VICON data using
   VICON BodyBuilder and BodyLanguage model FoxedUp or BRILLIANT.MOD
:root
   order TX TY TZ RX RY RZ
   axis XYZ
   position 0 0 0  
   orientation 0 0 0 
:bonedata
  begin
     id 1 
     name lhipjoint
     direction 0.653368 -0.678499 0.335782 
     length 2.51848 
     axis 0 0 0  XYZ
  end
  begin
     id 2 
     name lfemur
     direction 0.34202 -0.939693 0  
     length 6.57749  
     axis 0 0 20  XYZ
    dof rx ry rz
    limits (-160.0 20.0)
           (-70.0 70.0)
           (-60.0 70.0)
  end
  begin
     id 3 
     name ltibia
     direction 0.34202 -0.939693 0   
     length 7.94618   
     axis 0 0 20   XYZ
    dof rx
    limits (-10.0 170.0)
  end
  begin
     id 4 
     name lfoot
     direction 0.0811271 -0.222895 0.971461   
     length 2.31339   
     axis -90 7.62852e-016 20   XYZ
    dof rx rz
    limits (-45.0 90.0)
           (-70.0 20.0)
  end
  begin
     id 5 
     name ltoes
     direction 1.53568e-011 -4.21885e-011 1   
     length 1.15935   
     axis -90 7.62852e-016 20   XYZ
    dof rx
    limits (-90.0 20.0)
  end
  begin
     id 6 
     name rhipjoint
     direction -0.640058 -0.688614 0.340788   
     length 2.48149  
     axis 0 0 0  XYZ 
  end
  begin
     id 7 
     name rfemur
     direction -0.34202 -0.939693 0   
     length 6.57875   
     axis 0 0 -20   XYZ
    dof rx ry rz
    limits (-160.0 20.0)
           (-70.0 70.0)
           (-70.0 60.0)
  end
  begin
     id 8 
     name rtibia
     direction -0.34202 -0.939693 0   
     length 7.977   
     axis 0 0 -20   XYZ
    dof rx
    limits (-10.0 170.0)
 end
 begin
     id 9 
     name rfoot
     direction -0.0979793 -0.269196 0.958089   
     length 2.19857  
     axis -90 -7.62852e-016 -20   XYZ
    dof rx rz
    limits (-45.0 90.0)
           (-20.0 70.0)
  end
  begin
     id 10 
     name rtoes
     direction -1.53556e-011 -4.21868e-011 1   
     length 1.09838   
     axis -90 -7.62852e-016 -20   XYZ
    dof rx
    limits (-90.0 20.0)
  end
  begin
     id 11 
     name lowerback
     direction 0.0149039 0.998517 -0.0523597   
     length 2.10809   
     axis 0 0 0   XYZ
    dof rx ry rz
    limits (-20.0 45.0)
           (-30.0 30.0)
           (-30.0 30.0)
  end
  begin
     id 12 
     name upperback
     direction -0.00882659 0.999418 -0.0329624   
     length 2.1102   
     axis 0 0 0   XYZ
    dof rx ry rz
    limits (-20.0 45.0)
           (-30.0 30.0)
           (-30.0 30.0)
  end
  begin
     id 13 
     name thorax
     direction -0.0165585 0.999826 -0.0085833   
     length 2.11039   
     axis 0 0 0   XYZ
    dof rx ry rz
    limits (-20.0 45.0)
           (-30.0 30.0)
           (-30.0 30.0)
  end
  begin
     id 14 
     name lowerneck
     direction -0.0130877 0.999911 0.00260353   
     length 1.73253   
     axis 0 0 0   XYZ
    dof rx ry rz
    limits (-20.0 45.0)
           (-30.0 30.0)
           (-30.0 30.0)
  end
  begin
     id 15 
     name upperneck
     direction -0.0348454 0.928205 -0.370435   
     length 1.66692   
     axis 0 0 0   XYZ
    dof rx ry rz
    limits (-20.0 45.0)
           (-30.0 30.0)
           (-30.0 30.0)
  end
  begin
     id 16
     name head
     direction -0.00807754 0.992494 -0.122026  
     length 1.72765  
     axis 0 0 0   XYZ
    dof rx ry rz
    limits (-20.0 45.0)
           (-30.0 30.0)
           (-30.0 30.0)
  end
  begin
     id 17 
     name lclavicle
     direction 0.987582 0.144023 0.0627671  
     length 3.49235  
     axis 0 0 0   XYZ
    dof ry rz
    limits (-20.0 10.0)
           (0.0 20.0)
  end
  begin
     id 18 
     name lhumerus
     direction 1 -4.48958e-011 -1.45183e-018   
     length 5.41917   
     axis 180 -30 -90   XYZ
    dof rx ry rz
    limits (-60.0 90.0)
           (-90.0 90.0)
           (-90.0 90.0)
  end
  begin
     id 19
     name lradius
     direction 1 -4.48999e-011 5.75106e-027   
     length 2.44373   
     axis 180 -30 -90   XYZ
    dof rx
    limits (-10.0 170.0)
  end
  begin
     id 20
     name lwrist
     direction 1 -4.48987e-011 1.53461e-026   
     length 1.22186   
     axis -1.09697e-014 90 90   XYZ
    dof ry
    limits (-180.0 0.0)
 end
  begin
     id 21 
     name lhand
     direction 1 -4.48881e-011 3.06923e-026   
     length 0.727502   
     axis -1.95843e-014 90 90   XYZ
    dof rx rz
    limits (-90.0 90.0)
           (-45.0 45.0)
  end
  begin
     id 22 
     name lfingers
     direction 1 -4.48907e-011 6.13845e-026   
     length 0.586531   
     axis -3.91686e-014 90 90   XYZ
    dof rx
    limits (0.0 90.0)
  end
  begin
     id 23
     name lthumb
     direction 0.707107 -6.3487e-011 0.707107   
     length 0.842145   
     axis -90 45 2.85299e-015   XYZ
    dof rx rz
    limits (-45.0 45.0)
           (-45.0 45.0)
  end
  begin
     id 24 
     name rclavicle
     direction -0.980998 0.169556 0.0943023   
     length 3.29272  
     axis 0 0 0   XYZ 
    dof ry rz
    limits (-10.0 20.0)
           (-20.0 0.0)
  end
  begin
     id 25 
     name rhumerus
     direction -1 -1.83355e-005 2.45537e-005  
     length 5.58976   
     axis 180 30 90   XYZ
    dof rx ry rz
    limits (-90.0 60.0)
           (-90.0 90.0)
           (-90.0 90.0)
  end
  begin
     id 26 
     name rradius
     direction -1 -4.48967e-011 5.97228e-027   
     length 2.4806   
     axis 180 30 90   XYZ
    dof rx
    limits (-10.0 170.0)
  end
  begin
     id 27 
     name rwrist
     direction -1 -4.48963e-011 1.53461e-026   
     length 1.2403   
     axis -1.09697e-014 -90 -90   XYZ
    dof ry
    limits (-180.0 0.0)
  end
  begin
     id 28
     name rhand
     direction -1 -4.48881e-011 3.06923e-026   
     length 0.816009   
     axis -1.95843e-014 -90 -90   XYZ
    dof rx rz
    limits (-90.0 90.0)
           (-45.0 45.0)
  end
  begin
     id 29
     name rfingers
     direction -1 -4.49018e-011 6.13845e-026   
     length 0.657887   
     axis -3.91686e-014 -90 -90   XYZ
    dof rx
    limits (0.0 90.0)
  end
  begin
     id 30
     name rthumb
     direction -0.707107 -6.34872e-011 0.707107   
     length 0.944599   
     axis -90 -45 -2.85299e-015   XYZ
    dof rx rz
    limits (-45.0 45.0)
           (-45.0 45.0)
  end
:hierarchy
  begin
    root lhipjoint rhipjoint lowerback
    lhipjoint lfemur
    lfemur ltibia
    ltibia lfoot
    lfoot ltoes
    rhipjoint rfemur
    rfemur rtibia
    rtibia rfoot
    rfoot rtoes
    lowerback upperback
    upperback thorax
    thorax lowerneck lclavicle rclavicle
    lowerneck upperneck
    upperneck head
    lclavicle lhumerus
    lhumerus lradius
    lradius lwrist
    lwrist lhand lthumb
    lhand lfingers
    rclavicle rhumerus
    rhumerus rradius
    rradius rwrist
    rwrist rhand rthumb
    rhand rfingers
  end

#!OML:ASF F:\VICON\USERDATA\INSTALL\rory3\rory3.ASF
:FULLY-SPECIFIED
:DEGREES
179
root 0.653005 16.3083 -13.5281 31.0589 -0.134619 -1.74264
lowerback -14.1151 0.462409 -0.0968841
upperback -9.31722 0.628124 1.18764
thorax -1.92797 0.357541 1.36954
lowerneck -16.6543 -1.41817 -4.07501
upperneck 10.8308 0.384542 -9.21341
head 6.06931 -0.745365 -2.25477
rclavicle 1.26725e-015 -5.56597e-015
rhumerus -59.1498 4.88875 -89.5931
rradius 17.446
rwrist -12.5833
rhand -12.6739 14.8244
rfingers 7.12502
rthumb 13.4075 -14.7242
lclavicle 1.26725e-015 -5.56597e-015
lhumerus -58.2661 -0.741383 83.7187
lradius 37.461
lwrist 9.85119
lhand 3.44236 17.499
lfingers 7.12502
lthumb 28.8832 45.2828
rfemur -25.4377 -6.66086 32.0627
rtibia 46.0243
rfoot 27.7739 -23.1303
rtoes 17.977
lfemur -52.4051 5.06864 -36.014
ltibia 40.4867
lfoot -41.631 26.9092
ltoes 10.4212
180
root 0.65195 16.3106 -13.5336 31.1168 0.0196105 -1.68068
lowerback -14.1477 0.464263 -0.131385
upperback -9.35962 0.635671 1.16392
thorax -1.95633 0.362964 1.36526
lowerneck -16.4523 -1.37041 -4.04158
upperneck 10.9923 0.439972 -9.20537
head 6.08862 -0.718611 -2.25149
rclavicle 1.73937e-015 -7.35503e-015
rhumerus -59.2343 5.23095 -90.1742
rradius 17.319
rwrist -12.6636
rhand -11.1405 14.1259
rfingers 7.12502
rthumb 14.8851 -15.3194
lclavicle 1.73937e-015 -7.35503e-015
lhumerus -58.4558 -0.783131 83.7857
lradius 37.2875
lwrist 9.60997
lhand 4.03235 17.9021
lfingers 7.12502
lthumb 29.4466 45.5882
rfemur -25.5043 -6.55823 32.0959
rtibia 45.9893
rfoot 27.5865 -23.4583
rtoes 19.0842
lfemur -52.4602 5.0585 -36.084
ltibia 40.4727
lfoot -41.5539 26.7096
ltoes 10.9978
181
root 0.650808 16.3116 -13.5395 31.1373 0.102148 -1.60996
lowerback -14.0374 0.497956 -0.187665
upperback -9.47993 0.689258 1.09611
thorax -2.14445 0.392309 1.33068
lowerneck -16.2631 -1.32526 -3.97096
upperneck 11.2602 0.488015 -9.15379
head 6.14315 -0.695288 -2.24267
rclavicle 1.80646e-014 1.37161e-014
rhumerus -59.4753 5.30376 -90.5326
rradius 17.3831
rwrist -12.5621
rhand -9.26252 12.9367
rfingers 7.12502
rthumb 16.6937 -16.3655
lclavicle 1.80646e-014 1.37161e-014
lhumerus -58.7082 -0.78396 83.6565
lradius 37.0331
lwrist 9.13218
lhand 4.77502 17.5765
lfingers 7.12502
lthumb 30.1554 45.1356
rfemur -25.5331 -6.49842 32.0789
rtibia 45.956
rfoot 27.4513 -23.716
rtoes 19.909
lfemur -52.4536 5.08673 -36.1842
ltibia 40.4583
lfoot -41.5501 26.3862
ltoes 12.04
182
root 0.652166 16.3131 -13.5401 31.21 0.13957 -1.57364
lowerback -14.0453 0.527433 -0.216142
upperback -9.56522 0.7328 1.06811
thorax -2.23267 0.415843 1.32225
lowerneck -16.2364 -1.22598 -3.97349
upperneck 11.6533 0.642479 -9.05191
head 6.26834 -0.62931 -2.19923
rclavicle 4.37326e-015 8.94531e-015
rhumerus -59.6894 5.29445 -90.6253
rradius 17.6632
rwrist -12.2563
rhand -7.33983 11.3548
rfingers 7.12502
rthumb 18.544 -17.7813
lclavicle 4.37326e-015 8.94531e-015
lhumerus -58.7773 -0.662255 83.5249
lradius 36.4944
lwrist 8.7504
lhand 5.48973 17.1012
lfingers 7.12502
lthumb 30.837 44.5336
rfemur -25.5905 -6.50782 32.0546
rtibia 45.9038
rfoot 27.5673 -23.4671
rtoes 19.1347
lfemur -52.517 5.15783 -36.2728
ltibia 40.4479
lfoot -41.4423 26.242
ltoes 11.3997
183
root 0.650215 16.316 -13.5385 31.4314 0.176123 -1.53745
lowerback -14.3528 0.520056 -0.3347
upperback -9.53393 0.735261 1.11176
thorax -2.0392 0.423288 1.43882
lowerneck -16.4853 -1.10107 -4.08228
upperneck 12.018 0.869291 -8.9164
head 6.43335 -0.536063 -2.12308
rclavicle 3.42904e-015 -8.74653e-015
rhumerus -59.5594 5.34358 -90.5352
rradius 17.8997
rwrist -11.9195
rhand -5.51124 10.3868
rfingers 7.12502
rthumb 20.3021 -18.5721
lclavicle 3.42904e-015 -8.74653e-015
lhumerus -58.5476 -0.229107 83.2978
lradius 35.9986
lwrist 8.19363
lhand 6.13732 16.7117
lfingers 7.12502
lthumb 31.4542 44.0256
rfemur -25.8089 -6.44501 32.0634
rtibia 45.8569
rfoot 27.5778 -23.2183
rtoes 18.3887
lfemur -52.7583 5.21032 -36.3976
ltibia 40.4278
lfoot -41.1102 26.4046
ltoes 10.2721
184
root 0.650246 16.3171 -13.538 31.5486 0.228706 -1.54122
lowerback -14.6112 0.503515 -0.387267
upperback -9.43872 0.717948 1.17351
thorax -1.80235 0.417289 1.53457
lowerneck -16.7407 -0.997298 -4.13609
upperneck 12.2819 1.05423 -8.835
head 6.56629 -0.46073 -2.07543
rclavicle -6.4605e-015 -1.15295e-014
rhumerus -59.1632 5.35339 -90.2932
rradius 18.0016
rwrist -11.7142
rhand -3.61382 9.38751
rfingers 7.12502
rthumb 22.1248 -19.3666
lclavicle -6.4605e-015 -1.15295e-014
lhumerus -58.2322 0.413451 82.8763
lradius 35.4561
lwrist 7.23667
lhand 6.762 16.2307
lfingers 7.12502
lthumb 32.0491 43.4268
rfemur -25.9117 -6.39668 32.1036
rtibia 45.8185
rfoot 27.3653 -23.0147
rtoes 17.378
lfemur -52.8804 5.13783 -36.3808
ltibia 40.4005
lfoot -40.8916 26.6734
ltoes 9.63295
185
root 0.652549 16.3183 -13.5417 31.5908 0.294922 -1.56709
lowerback -14.7517 0.518431 -0.342634
upperback -9.35866 0.731624 1.18995
thorax -1.64276 0.421695 1.53056
lowerneck -16.9314 -0.927223 -4.10513
upperneck 12.5486 1.1763 -8.80234
head 6.68803 -0.414286 -2.06261
rclavicle -2.16178e-015 -1.39149e-014
rhumerus -58.7936 5.38603 -90.2196
rradius 17.9792
rwrist -11.7746
rhand -1.87858 8.32609
rfingers 7.12502
rthumb 23.7898 -20.2211
lclavicle -2.16178e-015 -1.39149e-014
lhumerus -57.9678 0.818349 82.5728
lradius 34.8724
lwrist 6.63796
lhand 7.41606 16.1451
lfingers 7.12502
lthumb 32.6716 43.214
rfemur -25.9571 -6.39465 32.1689
rtibia 45.7886
rfoot 27.2698 -22.7305
rtoes 16.2715
lfemur -52.9095 5.04191 -36.3126
ltibia 40.366
lfoot -40.952 26.6236
ltoes 10.2011
186
root 0.652856 16.32 -13.5467 31.7443 0.376112 -1.57714
lowerback -14.9741 0.533151 -0.300384
upperback -9.31063 0.745276 1.17571
thorax -1.47401 0.425611 1.49678
lowerneck -17.2083 -0.837161 -4.06504
upperneck 12.9207 1.3318 -8.72384
head 6.8593 -0.354003 -2.03467
rclavicle 2.38542e-015 0
rhumerus -58.4946 5.43629 -90.2435
rradius 17.9474
rwrist -11.8694
rhand 0.0233269 7.01966
rfingers 7.12502
rthumb 25.6127 -21.2779
lclavicle 2.38542e-015 0
lhumerus -57.8416 1.1945 82.2503
lradius 34.6955
lwrist 6.25909
lhand 8.13638 16.4931
lfingers 7.12502
lthumb 33.3567 43.4173
rfemur -26.1405 -6.4204 32.2544
rtibia 45.7573
rfoot 27.5987 -22.536
rtoes 15.8307
lfemur -53.0733 5.03402 -36.3285
ltibia 40.3169
lfoot -40.9756 26.3748
ltoes 11.0436
187
root 0.652544 16.3234 -13.5465 31.8453 0.411752 -1.56223
lowerback -15.1434 0.548539 -0.312744
upperback -9.26121 0.766417 1.172
thorax -1.33302 0.436023 1.50524
lowerneck -17.4027 -0.793701 -4.06471
upperneck 13.1443 1.42648 -8.72251
head 6.96819 -0.323166 -2.02896
rclavicle -1.23246e-014 -1.59028e-014
rhumerus -58.2617 5.55237 -90.2841
rradius 17.9833
rwrist -12.1341
rhand 1.80168 5.61917
rfingers 7.12502
rthumb 27.3149 -22.422
lclavicle -1.23246e-014 -1.59028e-014
lhumerus -57.7866 1.64339 81.8714
lradius 34.5923
lwrist 5.665
lhand 8.67665 16.5174
lfingers 7.12502
lthumb 33.8701 43.3299
rfemur -26.2338 -6.46858 32.2793
rtibia 45.7231
rfoot 27.7532 -22.2269
rtoes 15.2267
lfemur -53.1688 4.98927 -36.3276
ltibia 40.2545
lfoot -40.7571 26.6249
ltoes 10.4871
188
root 0.655312 16.3255 -13.543 31.7245 0.312554 -1.53872
lowerback -15.1414 0.625609 -0.3281
upperback -9.17913 0.870042 1.12473
thorax -1.24879 0.486999 1.47895
lowerneck -17.3482 -0.793985 -4.07518
upperneck 13.2656 1.43875 -8.73799
head 6.99917 -0.323232 -2.03204
rclavicle -5.889e-015 -9.93923e-015
rhumerus -58.1674 5.70522 -90.4261
rradius 18.1148
rwrist -12.4799
rhand 3.22374 4.64094
rfingers 7.12502
rthumb 28.6743 -23.1784
lclavicle -5.889e-015 -9.93923e-015
lhumerus -57.6783 1.95149 81.5513
lradius 34.2452
lwrist 5.12748
lhand 9.15698 15.9876
lfingers 7.12502
lthumb 34.3263 42.6983
rfemur -26.068 -6.41565 32.1693
rtibia 45.7207
rfoot 27.636 -21.3044
rtoes 12.9425
lfemur -52.9918 5.11634 -36.4129
ltibia 40.1471
lfoot -40.4241 27.0038
ltoes 9.42922
189
root 0.655113 16.3263 -13.5432 31.6464 0.173739 -1.4435
lowerback -15.1323 0.665588 -0.467299
upperback -9.14996 0.940362 1.05411
thorax -1.22552 0.526047 1.49312
lowerneck -17.2337 -0.740567 -4.10372
upperneck 13.508 1.5121 -8.62127
head 7.05892 -0.286924 -1.9831
rclavicle 1.77167e-014 1.19271e-014
rhumerus -57.9472 5.53456 -90.162
rradius 17.9095
rwrist -12.1271
rhand 4.67821 4.41993
rfingers 7.12502
rthumb 30.063 -23.1559
lclavicle 1.77167e-014 1.19271e-014
lhumerus -57.6939 2.24852 81.1851
lradius 34.2071
lwrist 4.71343
lhand 9.9191 16.0036
lfingers 7.12502
lthumb 35.0496 42.548
rfemur -25.9895 -6.28815 32.0066
rtibia 45.7436
rfoot 27.8536 -20.4132
rtoes 10.4235
lfemur -52.8241 5.10233 -36.4871
ltibia 40.0363
lfoot -40.6463 26.8331
ltoes 10.3943
190
root 0.6509 16.3266 -13.5462 31.7383 -0.0286537 -1.21399
lowerback -15.2495 0.663914 -0.84625
upperback -9.17223 0.985926 0.976543
thorax -1.19508 0.562425 1.63345
lowerneck -17.3938 -0.696616 -4.15626
upperneck 13.9827 1.61588 -8.47724
head 7.24259 -0.251773 -1.92349
rclavicle -1.57288e-014 -1.47101e-014
rhumerus -57.6983 5.25177 -89.7492
rradius 17.7413
rwrist -11.6991
rhand 5.75682 4.14779
rfingers 7.12502
rthumb 31.0916 -23.2362
lclavicle -1.57288e-014 -1.47101e-014
lhumerus -57.618 2.61911 80.7709
lradius 34.0101
lwrist 4.41378
lhand 10.5527 15.871
lfingers 7.12502
lthumb 35.6503 42.2726
rfemur -26.1271 -6.08009 31.7092
rtibia 45.7794
rfoot 27.9279 -20.5769
rtoes 11.1671
lfemur -52.8776 5.22778 -36.8563
ltibia 39.9498
lfoot -40.69 26.5444
ltoes 10.7848
191
root 0.648341 16.3273 -13.5502 31.9026 -0.0266246 -1.19142
lowerback -15.4701 0.667355 -0.90837
upperback -9.20263 0.99951 0.967708
thorax -1.11365 0.571394 1.66454
lowerneck -17.5251 -0.676763 -4.17023
upperneck 14.2871 1.67178 -8.4061
head 7.36577 -0.235784 -1.89668
rclavicle -1.24986e-014 -9.14409e-015
rhumerus -57.5004 5.02705 -89.3741
rradius 17.6808
rwrist -11.1861
rhand 6.6096 3.71758
rfingers 7.12502
rthumb 31.904 -23.5076
lclavicle -1.24986e-014 -9.14409e-015
lhumerus -57.3313 2.99038 80.4221
lradius 33.2432
lwrist 4.1887
lhand 10.594 15.2841
lfingers 7.12502
lthumb 35.6895 41.6763
rfemur -26.3066 -5.89674 31.7092
rtibia 45.7601
rfoot 27.6649 -21.1596
rtoes 12.9789
lfemur -53.1086 5.4809 -37.0728
ltibia 39.9472
lfoot -40.4172 26.3821
ltoes 10.0749
192
root 0.648405 16.3286 -13.5538 31.9057 0.107997 -1.33753
lowerback -15.4578 0.710639 -0.690975
upperback -9.29764 1.03027 0.958402
thorax -1.21796 0.579412 1.53547
lowerneck -17.2706 -0.649686 -3.99844
upperneck 14.4486 1.68106 -8.51883
head 7.37716 -0.233362 -1.96036
rclavicle -2.20154e-014 -1.92821e-014
rhumerus -57.44 4.7346 -89.0291
rradius 17.5181
rwrist -10.6683
rhand 7.71517 3.51138
rfingers 7.12502
rthumb 32.9562 -23.4981
lclavicle -2.20154e-014 -1.92821e-014
lhumerus -57.8951 3.31706 79.9314
lradius 34.3581
lwrist 3.79048
lhand 11.3805 16.0624
lfingers 7.12502
lthumb 36.4345 42.271
rfemur -26.2416 -5.85218 31.912
rtibia 45.6697
rfoot 27.6924 -20.6926
rtoes 11.8175
lfemur -53.1655 5.55066 -36.9301
ltibia 40.0219
lfoot -40.4262 26.1468
ltoes 10.4885
193
root 0.650936 16.3271 -13.5553 31.8162 0.216654 -1.48889
lowerback -15.4294 0.770101 -0.444494
upperback -9.31447 1.07846 0.937339
thorax -1.24667 0.593437 1.38056
lowerneck -17.0629 -0.621359 -3.78583
upperneck 14.6302 1.69774 -8.68356
head 7.40428 -0.231786 -2.04787
rclavicle 2.01269e-015 1.98785e-015
rhumerus -57.2059 4.38451 -88.6228
rradius 17.262
rwrist -10.1294
rhand 9.05502 3.08872
rfingers 7.12502
rthumb 34.2295 -23.6438
lclavicle 2.01269e-015 1.98785e-015
lhumerus -57.7009 3.58536 79.4994
lradius 33.7417
lwrist 3.52144
lhand 11.5899 16.0629
lfingers 7.12502
lthumb 36.6327 42.2215
rfemur -26.0022 -5.8074 32.065
rtibia 45.5343
rfoot 27.6048 -19.8214
rtoes 10.0713
lfemur -53.1174 5.48054 -36.6723
ltibia 40.1553
lfoot -40.7538 25.8397
ltoes 11.5173
